PathFileType	4	(X/Y/Z)	Patient4_TMGait_0pt2_03_left_18.trc.trc
DataRate	CameraRate	NumFrames	NumMarkers	Units	OrigDataRate	OrigDataStartFrame	OrigNumFrames
46.822742474916	46.822742474916	4	33	mm	46.822742474916	124	       141
Frame#	Time	Sacral			L.Shoulder			Chest			R.Shoulder			Neck			R.ASIS			L.ASIS			R.Thigh.Superior			R.Thigh.Lateral			R.Thigh.Inferior			R.Patella			L.Thigh.Superior			L.Thigh.Lateral			L.Thigh.Inferior			L.Patella			L.Shank.Superior			L.Shank.Lateral			L.Shank.Inferior			R.Shank.Superior			R.Shank.Lateral			R.Shank.Inferior			R.Heel			R.Midfoot.Superior			R.Midfoot.Lateral			R.Toe			L.Heel			L.Midfoot.Lateral			L.Midfoot.Superior			L.Toe			L.Elbow			L.Wrist			R.Elbow			R.Wrist			
		X1	Y1	Z1	X2	Y2	Z2	X3	Y3	Z3	X4	Y4	Z4	X5	Y5	Z5	X6	Y6	Z6	X7	Y7	Z7	X8	Y8	Z8	X9	Y9	Z9	X10	Y10	Z10	X11	Y11	Z11	X12	Y12	Z12	X13	Y13	Z13	X14	Y14	Z14	X15	Y15	Z15	X16	Y16	Z16	X17	Y17	Z17	X18	Y18	Z18	X19	Y19	Z19	X20	Y20	Z20	X21	Y21	Z21	X22	Y22	Z22	X23	Y23	Z23	X24	Y24	Z24	X25	Y25	Z25	X26	Y26	Z26	X27	Y27	Z27	X28	Y28	Z28	X29	Y29	Z29	X30	Y30	Z30	X31	Y31	Z31	X32	Y32	Z32	X33	Y33	Z33	

124	40.166928571429	788.255770674402	1003.972974182932	614.875593447994	901.887134897209	1425.445994073818	385.187000731046	1053.173651568635	1353.742333405159	499.873574580326	1040.476344682862	1433.457121944697	688.185407285212	935.771072750327	1487.017181161610	539.438534121327	1037.398404269002	930.923583776782	659.599915360243	946.401376600184	957.569706412754	400.935385069582	1040.279946239547	722.140792315847	621.482639222861	959.769107724273	617.321055192261	695.991407589096	1009.017680723997	561.136182412333	601.218383201331	996.707430017181	470.473269413501	607.804405029846	1017.091388486533	760.529222728014	407.534399926242	933.832925063161	626.346781801948	342.829116638737	1050.322437902840	571.824354127619	383.348293916565	1068.653022095682	508.126970982926	377.979575098978	1050.544962113720	437.592180778071	364.851934502603	974.632237087468	314.051338007686	311.632246061165	1061.734015711241	207.962930703217	351.807670477588	952.356100518102	388.018750990780	618.269655706851	870.881494436952	294.142958471886	685.960492514450	887.293273703923	197.809414175550	615.335134180560	727.511378775271	44.559886801613	590.191197750271	900.853808988784	94.934959088220	620.769989835444	812.311290914488	36.777637327963	662.539733870444	1020.595833231376	40.831363410884	647.102836560780	966.529677914543	37.776240975962	381.467363686307	1040.529136918243	38.262211939505	301.285908198573	1118.886432603675	106.870274654099	325.525396928123	1248.619000990546	65.140757864096	298.028775657058	721.813942230324	1115.441535238224	348.823378679220	665.941821635858	867.709853258422	418.272800631720	1257.871064833278	1171.885599323832	768.602868478103	1474.487657550541	1267.046914435336	670.342048196033	
125	40.188285714286	788.460152274656	1003.065801985493	611.423587569893	900.928733928910	1424.230895240615	380.096477187427	1052.539819688411	1352.960887245134	494.680086595203	1039.968067024814	1432.886382620217	682.844030834550	935.002037876920	1486.194483255848	534.023198288956	1037.998961049281	930.600322466023	656.050069555107	946.351233647859	956.111318006844	397.456713560912	1040.020316690811	721.341857856126	618.444635279887	958.947968201261	616.998045953159	693.456424576666	1007.443047573481	560.248181245096	598.864988451306	994.362882732011	469.599161381876	605.786710460998	1017.792666033855	759.124114228627	404.605078414927	933.772781786780	624.732440232851	341.244895388329	1050.553791885836	570.766464297338	381.398546245270	1067.804961354641	506.526497739082	376.720111556682	1049.916960668827	435.700149787396	363.635059287524	973.345986517244	312.522974798150	310.994280368488	1059.490460328732	206.177747392389	351.912018796363	949.697189726270	387.448389729868	616.716137873143	867.724163466082	294.251120721592	684.838517223360	883.544081599653	197.516071382228	614.634914126967	723.279587692924	44.584790008863	590.139999335900	896.475960040430	94.828000057708	620.435416254753	808.060980226959	36.816722241641	662.510830636721	1016.339771236561	40.801642770116	647.126184903345	962.201979747364	37.946939631196	381.778664618989	1036.731890278483	37.409742606586	301.992548308998	1115.950685392525	104.636802337663	326.920338508114	1245.319685784154	60.912997242018	300.294808672411	722.352318210221	1113.223090500405	344.034348865336	667.033070839108	865.369238714468	413.332323300131	1258.898591312059	1172.721559449401	761.582767120157	1472.113646865529	1272.871496321400	661.520635130744	
126	40.209642857143	788.728324397989	1002.392417264375	607.716882006032	900.227306918901	1423.166593024029	374.746823842119	1052.101198319840	1352.332941215225	489.322196780719	1039.547183909662	1432.542775057655	677.315887694765	934.363285109213	1485.530428906249	528.339601580153	1038.600377358903	930.360804138760	652.321422911406	946.461199049264	954.948653837648	393.761185310208	1039.797204781410	720.612654977677	615.277342596990	958.113716263435	616.778000074546	690.766641361838	1005.916517750517	559.438101658850	596.392148074415	992.102251854098	468.817424029267	603.668925012579	1018.962463802377	758.284661419102	401.734127641039	934.707513335256	623.660650049231	339.308146530539	1051.616268533193	570.212522549527	379.435579306053	1067.807177067866	505.242916556292	375.333280014239	1049.925281596373	434.057101660430	362.293338849933	972.396091865266	311.453857452662	309.997026008891	1057.131262563113	204.551362170159	351.870826220842	947.051005281777	386.969842256590	615.048952177200	864.595512792053	294.506399572354	683.631301509641	879.830049137248	197.320515318110	613.891983336158	719.086333412766	44.726699699243	590.073469939653	892.130811892653	94.727387944707	620.081567554604	803.845403951787	36.917830547754	662.459953625021	1012.111462700412	40.728625981585	647.160790123919	957.390188918684	38.156793458219	381.998855980499	1032.288056566874	36.725189018472	302.465242382156	1112.360455963938	102.673491363748	327.977049927009	1241.372194260770	57.147998845052	301.890395477492	723.329415196892	1111.101516321714	338.380393318568	668.769170104779	862.965903235561	407.097584698698	1259.541053153135	1173.436235356567	754.948849991502	1469.907099351035	1277.174676564716	653.142736355053	
127	40.231000000000	789.026048911786	1001.997304504165	603.720186990176	899.778749992939	1422.288989947378	369.189513154800	1051.858334536399	1351.876694223043	483.829324963090	1039.245627151371	1432.436666397813	671.636050331183	933.872995422203	1485.053148748128	522.453616919280	1039.133876202897	930.214065141122	648.396805110740	946.716938219308	954.125819394578	389.818237385592	1039.482707249427	719.968336713234	611.994472239839	957.136643689415	616.697373137781	687.950006221558	1004.309661966414	558.734012519686	593.833087058764	989.804553133468	468.169220940154	601.491473288717	1020.493336761901	758.013298577148	398.890050904700	936.507363313483	623.117607923333	336.994798548203	1053.357688183756	570.103091284003	377.435806939353	1068.564832274876	504.279641117413	373.832791441827	1050.495799556777	432.695304788822	360.861548311387	971.836487385218	310.818795918113	308.641089132005	1054.783419968483	203.139695026577	351.706804129890	944.322550473085	386.615873946991	613.297208940574	861.420771172193	294.922137290878	682.358702673709	876.119859252168	197.246602938150	613.125165662532	714.920573843873	44.998166343553	589.995874838180	887.815617589764	94.635134673993	619.715410499041	799.654711587772	37.090274861157	662.391375002951	1007.900108542758	40.615307729622	647.205024962322	952.410462003332	38.352852364910	382.112838077281	1027.530322474215	36.215171664791	302.709937923477	1108.355408314323	101.080648737701	328.697718392864	1237.058882041399	54.088349702399	302.860112537709	724.655281999035	1109.160883503669	331.969857073523	671.027789506195	860.597814956973	399.689296953289	1259.943609332741	1174.128136228824	748.683360902885	1468.052638185717	1280.217707236951	645.195709664470	
